# xmcd
#
# Track frame offsets:
#	150
#	12351
#	22512
#	32655
#	41393
#	52698
#	63778
#	73522
#	87471
#	99374
#	111248
#	124029
#	135048
#	144704
#	156888
#	167971
#	179896
#	190481
#	202267
#	212645
#	222548
#	234830
#	246523
#	257684
#	271236
#	281711
#
# Disc length: 3860 seconds
#
# Revision: 1
# Processed by: cddbd v1.5.2PL0 Copyright (c) Steve Scherf et al.
# Submitted via: audiograbber 1.83.01
#
DISCID=790f121a
DTITLE=Various Artist - Wigan Casino Rare Tracks Vol. 1
DYEAR=1900
DGENRE=Soul
TTITLE0=Eddie Holman - Where I'm Not Wanted
TTITLE1=Ray Agee - I'm Losing Again
TTITLE2=Vondells - Hey Girl You've Changed
TTITLE3=Combinations - Whatcha Gonna Do
TTITLE4=Gene Toones - What More Do You Want
TTITLE5=Seven Souls - I Still Love You
TTITLE6=Admirations - You Left Me
TTITLE7=Cecil Washington - I Don't Like To Lose
TTITLE8=Ascots - Another Day
TTITLE9=Imaginations - Strange Neighborhood
TTITLE10=Jackey Beavers - I Need My Baby
TTITLE11=Court Davis - Try To Think What You're Doing
TTITLE12=John and Weirdest - Can't Get Over These Memories
TTITLE13=Nate Adams - Love Slipped Through My Fingers
TTITLE14=Emmanuel Lasky - You Know What I Like
TTITLE15=Mr Soul - What Happened To Yesterday
TTITLE16=William Powell - Heartache Souvernirs
TTITLE17=Nomads - Something's Bad
TTITLE18=Paris - Sleepless Nights
TTITLE19=Pat Lewis - No One To Love
TTITLE20=Rosey Jones - All I Need Is Have A Chance
TTITLE21=Bleu Lights - They Don't Know My Heart
TTITLE22=Nurons - All Of My Life
TTITLE23=Four Tracks - Like My Love For You
TTITLE24=Little Ann - What Should I Do
TTITLE25=John and Weirdest - No Time
EXTD=
EXTT0=
EXTT1=
EXTT2=
EXTT3=
EXTT4=
EXTT5=
EXTT6=
EXTT7=
EXTT8=
EXTT9=
EXTT10=
EXTT11=
EXTT12=
EXTT13=
EXTT14=
EXTT15=
EXTT16=
EXTT17=
EXTT18=
EXTT19=
EXTT20=
EXTT21=
EXTT22=
EXTT23=
EXTT24=
EXTT25=
PLAYORDER=
